<?xml version="1.0" encoding="utf-8"?>
<!-- Generator: Adobe Illustrator 16.0.0, SVG Export Plug-In . SVG Version: 6.00 Build 0)  -->
<!DOCTYPE svg PUBLIC "-//W3C//DTD SVG 1.1//EN" "http://www.w3.org/Graphics/SVG/1.1/DTD/svg11.dtd">
<svg version="1.1" id="Layer_1" xmlns="http://www.w3.org/2000/svg" xmlns:xlink="http://www.w3.org/1999/xlink" x="0px" y="0px"
	 width="114.125px" height="16.25px" viewBox="0 0 114.125 16.25" enable-background="new 0 0 114.125 16.25" xml:space="preserve">
<g id="flag">
	<g id="gray">
		<g>
			<path fill="#666666" d="M61,13.416c0,1.559-1.275,2.834-2.834,2.834H2.834C1.275,16.25,0,14.975,0,13.416V2.834
				C0,1.275,1.275,0,2.834,0h55.331C59.725,0,61,1.275,61,2.834V13.416z"/>
		</g>
		<rect x="57.297" fill="#666666" width="9.276" height="16.25"/>
	</g>
	<g id="green">
		<g>
			<path fill="#00E000" d="M73,13.416c0,1.559,1.275,2.834,2.834,2.834h35.456c1.559,0,2.834-1.275,2.834-2.834V2.834
				c0-1.559-1.275-2.834-2.834-2.834H75.834C74.275,0,73,1.275,73,2.834V13.416z"/>
		</g>
		<rect x="66.573" fill="#00E000" width="10.99" height="16.25"/>
	</g>
</g>
<g>
	<path fill="#FFFFFF" d="M12.682,4.556H8.75v3.104h3.411v0.957H8.75v3.271h4.187v0.93H7.585v-9.21h5.23L12.682,4.556z"/>
	<path fill="#FFFFFF" d="M18.953,11.739c0.314-0.201,0.472-0.473,0.472-0.816c0-0.231-0.041-0.422-0.124-0.572
		s-0.246-0.286-0.488-0.411c-0.243-0.125-0.608-0.248-1.094-0.368c-0.54-0.134-0.98-0.28-1.321-0.438
		c-0.341-0.158-0.606-0.364-0.796-0.619c-0.19-0.254-0.284-0.577-0.284-0.97c0-0.388,0.111-0.727,0.334-1.017
		c0.223-0.29,0.536-0.513,0.94-0.669c0.403-0.156,0.871-0.234,1.401-0.234c0.53,0,1.009,0.07,1.435,0.211s0.799,0.329,1.12,0.565
		l-0.495,0.763c-0.294-0.201-0.603-0.355-0.926-0.465c-0.324-0.109-0.697-0.164-1.121-0.164c-0.531,0-0.917,0.082-1.16,0.244
		c-0.243,0.163-0.365,0.389-0.365,0.679c0,0.209,0.057,0.381,0.17,0.515c0.114,0.133,0.299,0.253,0.555,0.357
		c0.256,0.105,0.639,0.227,1.147,0.365c0.509,0.138,0.925,0.292,1.251,0.461s0.58,0.391,0.763,0.666
		c0.183,0.274,0.274,0.623,0.274,1.047c0,0.477-0.138,0.873-0.415,1.187s-0.639,0.545-1.087,0.692s-0.938,0.221-1.468,0.221
		c-1.106,0-2.024-0.316-2.755-0.95l0.642-0.743c0.285,0.241,0.608,0.428,0.97,0.562s0.742,0.201,1.144,0.201
		C18.211,12.04,18.639,11.94,18.953,11.739z"/>
	<path fill="#FFFFFF" d="M28.895,12.461c-0.236,0.156-0.527,0.28-0.873,0.371c-0.345,0.091-0.683,0.137-1.013,0.137
		c-0.495,0-0.919-0.09-1.274-0.271s-0.625-0.431-0.813-0.752c-0.187-0.321-0.281-0.689-0.281-1.104v-4.2h-1.619v-0.87h1.619V4.174
		l1.124-0.134v1.732h2.435l-0.134,0.87h-2.301v4.187c0,0.401,0.106,0.702,0.318,0.903s0.554,0.301,1.027,0.301
		c0.477,0,0.927-0.111,1.351-0.334L28.895,12.461z"/>
	<path fill="#FFFFFF" d="M36.373,11.277c0,0.277,0.044,0.481,0.134,0.612c0.089,0.131,0.236,0.229,0.441,0.291l-0.274,0.789
		c-0.678-0.089-1.108-0.419-1.291-0.99c-0.25,0.325-0.565,0.572-0.946,0.739c-0.381,0.167-0.802,0.251-1.261,0.251
		c-0.464,0-0.867-0.089-1.21-0.268c-0.344-0.178-0.606-0.431-0.79-0.759c-0.183-0.328-0.274-0.71-0.274-1.147
		c0-0.727,0.283-1.284,0.849-1.672c0.566-0.388,1.385-0.582,2.455-0.582h1.037V7.953c0-0.49-0.143-0.846-0.428-1.066
		s-0.702-0.331-1.25-0.331c-0.531,0-1.142,0.12-1.833,0.361l-0.294-0.849c0.785-0.294,1.551-0.442,2.301-0.442
		c0.86,0,1.515,0.202,1.963,0.605c0.448,0.404,0.672,0.96,0.672,1.669V11.277z M34.457,11.85c0.314-0.176,0.576-0.42,0.786-0.732
		V9.304h-1.017c-0.745,0-1.284,0.127-1.619,0.381c-0.334,0.254-0.502,0.62-0.502,1.097c0,0.887,0.453,1.331,1.358,1.331
		C33.811,12.114,34.142,12.025,34.457,11.85z"/>
	<path fill="#FFFFFF" d="M40.479,6.689c0.263-0.343,0.564-0.606,0.903-0.789c0.339-0.183,0.707-0.274,1.104-0.274
		c0.91,0,1.577,0.322,2.003,0.967c0.426,0.645,0.639,1.544,0.639,2.699c0,0.718-0.107,1.354-0.321,1.91
		c-0.214,0.555-0.531,0.989-0.95,1.301c-0.419,0.313-0.925,0.468-1.518,0.468c-0.411,0-0.774-0.072-1.09-0.217
		c-0.317-0.145-0.593-0.367-0.83-0.666l-0.08,0.729h-0.983V2.937l1.124-0.141V6.689z M43.436,11.368
		c0.312-0.461,0.468-1.156,0.468-2.083c0-0.914-0.141-1.602-0.421-2.063c-0.281-0.461-0.693-0.692-1.237-0.692
		c-0.361,0-0.691,0.107-0.99,0.321c-0.299,0.214-0.558,0.484-0.776,0.81v3.491c0.187,0.286,0.42,0.508,0.699,0.669
		s0.576,0.241,0.893,0.241C42.668,12.06,43.124,11.83,43.436,11.368z"/>
	<path fill="#FFFFFF" d="M50.125,11.077c0,0.33,0.104,0.572,0.311,0.726c0.207,0.154,0.491,0.23,0.853,0.23
		c0.379,0,0.773-0.083,1.184-0.248l0.301,0.823c-0.214,0.107-0.464,0.194-0.749,0.261c-0.286,0.067-0.593,0.1-0.923,0.1
		c-0.415,0-0.782-0.078-1.101-0.234c-0.319-0.156-0.565-0.381-0.739-0.676C49.087,11.766,49,11.418,49,11.017v-7.19h-2.16v-0.89
		h3.284V11.077z"/>
	<path fill="#FFFFFF" d="M56.291,9.692c0.018,0.526,0.121,0.964,0.308,1.314c0.187,0.35,0.432,0.608,0.735,0.776
		c0.303,0.167,0.642,0.25,1.017,0.25c0.348,0,0.667-0.051,0.959-0.154s0.599-0.263,0.92-0.481l0.528,0.742
		c-0.33,0.259-0.708,0.462-1.134,0.609s-0.855,0.221-1.288,0.221c-0.673,0-1.253-0.152-1.739-0.455
		c-0.486-0.303-0.855-0.731-1.107-1.284c-0.252-0.553-0.378-1.195-0.378-1.927c0-0.709,0.127-1.342,0.381-1.899
		c0.254-0.557,0.613-0.993,1.077-1.308c0.463-0.314,1.003-0.472,1.619-0.472c0.588,0,1.098,0.139,1.528,0.415
		c0.43,0.276,0.76,0.674,0.99,1.194s0.345,1.134,0.345,1.843c0,0.205-0.009,0.41-0.027,0.615H56.291z M56.876,7.121
		c-0.341,0.381-0.534,0.949-0.579,1.702h3.672c-0.013-0.74-0.176-1.304-0.488-1.692c-0.313-0.388-0.738-0.582-1.278-0.582
		C57.66,6.549,57.217,6.739,56.876,7.121z"/>
</g>
<g>
	<path fill="#FFFFFF" d="M75.563,5.909h1.164l-2.562,7.043H72.86l-2.542-7.043h1.191l2.04,6.02L75.563,5.909z"/>
	<path fill="#FFFFFF" d="M83.796,4.818c0.513,0.816,0.77,1.991,0.77,3.525c0,1.539-0.256,2.717-0.77,3.535
		c-0.513,0.818-1.262,1.228-2.247,1.228s-1.735-0.409-2.248-1.228c-0.513-0.818-0.769-1.996-0.769-3.535
		c0-1.534,0.256-2.709,0.769-3.525s1.262-1.224,2.248-1.224S83.283,4.002,83.796,4.818z M79.723,8.343
		c0,1.025,0.078,1.828,0.234,2.408l2.816-5.658c-0.277-0.397-0.685-0.595-1.224-0.595C80.332,4.498,79.723,5.779,79.723,8.343z
		 M83.381,8.343c0-1.043-0.08-1.851-0.241-2.421l-2.802,5.686c0.147,0.201,0.32,0.349,0.518,0.445
		c0.198,0.096,0.429,0.144,0.692,0.144C82.771,12.196,83.381,10.912,83.381,8.343z"/>
	<path fill="#FFFFFF" d="M88.544,11.333c0.103-0.178,0.243-0.32,0.421-0.425c0.179-0.104,0.377-0.157,0.596-0.157
		c0.223,0,0.424,0.053,0.605,0.157c0.181,0.105,0.322,0.247,0.425,0.425s0.154,0.375,0.154,0.588c0,0.219-0.051,0.418-0.154,0.599
		c-0.103,0.181-0.244,0.324-0.425,0.428c-0.181,0.105-0.382,0.157-0.605,0.157c-0.219,0-0.417-0.052-0.596-0.157
		c-0.178-0.104-0.319-0.248-0.421-0.428c-0.103-0.18-0.154-0.38-0.154-0.599C88.391,11.708,88.442,11.511,88.544,11.333z"/>
	<path fill="#FFFFFF" d="M99.965,7.076C99.7,7.403,99.3,7.714,98.765,8.009c0.62,0.254,1.104,0.592,1.452,1.013
		s0.521,0.909,0.521,1.461c0,0.5-0.129,0.949-0.388,1.348c-0.259,0.399-0.626,0.711-1.104,0.936
		c-0.478,0.225-1.035,0.338-1.672,0.338c-0.642,0-1.197-0.114-1.666-0.341c-0.468-0.227-0.826-0.538-1.073-0.933
		c-0.248-0.395-0.372-0.837-0.372-1.328c0-1.034,0.616-1.834,1.846-2.401c-0.504-0.241-0.875-0.526-1.114-0.856
		c-0.238-0.33-0.357-0.747-0.357-1.25c0-0.531,0.139-0.977,0.418-1.338c0.278-0.361,0.631-0.628,1.057-0.803
		c0.426-0.174,0.855-0.261,1.288-0.261c0.473,0,0.918,0.085,1.338,0.254c0.419,0.169,0.761,0.43,1.026,0.782
		c0.265,0.353,0.398,0.787,0.398,1.305C100.363,6.368,100.23,6.748,99.965,7.076z M99.26,9.547
		c-0.196-0.241-0.452-0.435-0.766-0.582c-0.314-0.147-0.784-0.328-1.408-0.542c-0.437,0.201-0.786,0.465-1.047,0.793
		c-0.261,0.328-0.391,0.759-0.391,1.294c0,0.531,0.164,0.944,0.492,1.241c0.328,0.297,0.804,0.445,1.428,0.445
		c0.419,0,0.778-0.074,1.077-0.221s0.525-0.349,0.679-0.605c0.154-0.256,0.231-0.547,0.231-0.873
		C99.554,10.104,99.456,9.788,99.26,9.547z M96.18,6.818c0.154,0.201,0.361,0.361,0.622,0.481s0.65,0.263,1.167,0.428
		c0.303-0.169,0.546-0.334,0.729-0.495c0.183-0.161,0.321-0.341,0.415-0.542c0.093-0.201,0.14-0.439,0.14-0.716
		c0-0.468-0.145-0.837-0.435-1.107c-0.29-0.27-0.696-0.405-1.217-0.405c-0.522,0-0.928,0.136-1.217,0.408
		c-0.29,0.272-0.435,0.651-0.435,1.137C95.949,6.348,96.026,6.618,96.18,6.818z"/>
	<path fill="#FFFFFF" d="M107.874,4.818c0.513,0.816,0.77,1.991,0.77,3.525c0,1.539-0.256,2.717-0.77,3.535
		c-0.513,0.818-1.262,1.228-2.247,1.228s-1.735-0.409-2.248-1.228c-0.513-0.818-0.769-1.996-0.769-3.535
		c0-1.534,0.256-2.709,0.769-3.525s1.262-1.224,2.248-1.224S107.361,4.002,107.874,4.818z M103.801,8.343
		c0,1.025,0.078,1.828,0.234,2.408l2.816-5.658c-0.277-0.397-0.685-0.595-1.224-0.595C104.41,4.498,103.801,5.779,103.801,8.343z
		 M107.459,8.343c0-1.043-0.08-1.851-0.241-2.421l-2.802,5.686c0.147,0.201,0.32,0.349,0.518,0.445
		c0.198,0.096,0.429,0.144,0.692,0.144C106.849,12.196,107.459,10.912,107.459,8.343z"/>
</g>
</svg>
