<?xml version="1.0" encoding="utf-8"?>
<!-- Generator: Adobe Illustrator 16.0.0, SVG Export Plug-In . SVG Version: 6.00 Build 0)  -->
<!DOCTYPE svg PUBLIC "-//W3C//DTD SVG 1.1//EN" "http://www.w3.org/Graphics/SVG/1.1/DTD/svg11.dtd">
<svg version="1.1" id="Layer_1" xmlns="http://www.w3.org/2000/svg" xmlns:xlink="http://www.w3.org/1999/xlink" x="0px" y="0px"
	 width="166.421px" height="24.567px" viewBox="0 0 166.421 24.567" enable-background="new 0 0 166.421 24.567"
	 xml:space="preserve">
<g id="flag">
	<g id="gray">
		<g>
			<path fill="#666666" d="M97.08,16.063c0,4.677-3.827,8.504-8.504,8.504H8.505c-4.677,0-8.504-3.827-8.504-8.504V8.504
				C0.001,3.827,3.828,0,8.505,0h80.071c4.677,0,8.504,3.827,8.504,8.504V16.063z"/>
		</g>
		<rect x="90.541" fill="#666666" width="6.539" height="24.567"/>
	</g>
	<g id="green">
		<g>
			<path fill="#00E000" d="M166.421,8.504c0-4.677-3.827-8.504-8.504-8.504h-52.334c-4.677,0-8.504,3.827-8.504,8.504v7.559
				c0,4.677,3.827,8.504,8.504,8.504h52.334c4.677,0,8.504-3.827,8.504-8.504V8.504z"/>
		</g>
		<rect x="97.079" fill="#00E000" width="10.104" height="24.567"/>
	</g>
</g>
<g>
	<path fill="#FFFFFF" d="M18.492,6.643h-5.735v4.526h4.974v1.395h-4.974v4.769h6.105v1.356H11.06V5.258h7.627L18.492,6.643z"/>
	<path fill="#FFFFFF" d="M27.635,17.118c0.458-0.292,0.688-0.689,0.688-1.19c0-0.338-0.061-0.616-0.181-0.834
		s-0.357-0.417-0.712-0.6s-0.886-0.361-1.595-0.537c-0.787-0.195-1.429-0.408-1.926-0.639c-0.498-0.231-0.884-0.532-1.161-0.902
		s-0.415-0.842-0.415-1.415c0-0.565,0.163-1.06,0.488-1.482c0.325-0.422,0.782-0.748,1.37-0.975s1.27-0.341,2.043-0.341
		s1.471,0.102,2.092,0.307c0.621,0.205,1.166,0.479,1.634,0.824l-0.722,1.112c-0.429-0.292-0.879-0.519-1.351-0.678
		c-0.472-0.16-1.016-0.239-1.634-0.239c-0.774,0-1.338,0.119-1.692,0.356c-0.354,0.238-0.531,0.567-0.531,0.99
		c0,0.306,0.083,0.556,0.249,0.751c0.166,0.195,0.436,0.369,0.81,0.522s0.932,0.33,1.673,0.531c0.741,0.202,1.349,0.426,1.824,0.673
		s0.845,0.57,1.112,0.97s0.4,0.909,0.4,1.526c0,0.696-0.202,1.273-0.604,1.731c-0.403,0.458-0.932,0.795-1.585,1.009
		c-0.654,0.215-1.367,0.322-2.141,0.322c-1.613,0-2.952-0.461-4.019-1.385l0.937-1.083c0.416,0.351,0.888,0.624,1.414,0.819
		c0.527,0.195,1.083,0.292,1.668,0.292C26.554,17.557,27.177,17.411,27.635,17.118z"/>
	<path fill="#FFFFFF" d="M42.134,18.171c-0.345,0.228-0.769,0.408-1.272,0.542c-0.504,0.133-0.997,0.2-1.478,0.2
		c-0.722,0-1.341-0.131-1.858-0.395c-0.517-0.263-0.912-0.629-1.185-1.097s-0.41-1.004-0.41-1.609V9.686h-2.36V8.418h2.36V6.087
		l1.639-0.195v2.526h3.55l-0.195,1.268h-3.355v6.105c0,0.585,0.154,1.024,0.463,1.317c0.309,0.292,0.808,0.439,1.497,0.439
		c0.696,0,1.353-0.163,1.97-0.488L42.134,18.171z"/>
	<path fill="#FFFFFF" d="M53.038,16.445c0,0.403,0.065,0.701,0.195,0.892c0.13,0.192,0.345,0.333,0.644,0.424l-0.4,1.151
		c-0.988-0.13-1.616-0.611-1.882-1.443c-0.364,0.475-0.824,0.834-1.38,1.078c-0.556,0.244-1.169,0.366-1.839,0.366
		c-0.676,0-1.265-0.13-1.765-0.39c-0.501-0.26-0.885-0.629-1.151-1.107c-0.267-0.478-0.4-1.035-0.4-1.673
		c0-1.06,0.413-1.873,1.238-2.438c0.826-0.566,2.019-0.849,3.58-0.849h1.512v-0.858c0-0.715-0.208-1.234-0.625-1.556
		s-1.024-0.483-1.824-0.483c-0.774,0-1.665,0.176-2.672,0.527L45.84,8.847c1.144-0.429,2.263-0.644,3.355-0.644
		c1.255,0,2.209,0.294,2.863,0.882c0.653,0.589,0.98,1.4,0.98,2.434V16.445z M50.243,17.279c0.458-0.257,0.84-0.613,1.146-1.068
		v-2.643h-1.483c-1.086,0-1.873,0.185-2.36,0.556c-0.487,0.371-0.731,0.904-0.731,1.6c0,1.294,0.66,1.941,1.98,1.941
		C49.302,17.665,49.785,17.536,50.243,17.279z"/>
	<path fill="#FFFFFF" d="M59.026,9.754c0.383-0.501,0.822-0.884,1.317-1.151c0.494-0.267,1.03-0.4,1.609-0.4
		c1.327,0,2.3,0.47,2.921,1.409s0.932,2.251,0.932,3.936c0,1.047-0.156,1.975-0.468,2.785s-0.774,1.442-1.385,1.897
		c-0.611,0.455-1.349,0.683-2.214,0.683c-0.598,0-1.128-0.105-1.59-0.317c-0.462-0.211-0.865-0.535-1.209-0.97l-0.117,1.063h-1.434
		V4.282l1.639-0.205V9.754z M63.337,16.577c0.455-0.673,0.683-1.686,0.683-3.038c0-1.333-0.205-2.336-0.614-3.009
		c-0.41-0.673-1.011-1.01-1.805-1.01c-0.526,0-1.008,0.156-1.443,0.468s-0.813,0.706-1.131,1.18v5.091
		c0.273,0.417,0.613,0.741,1.019,0.976c0.406,0.234,0.84,0.351,1.302,0.351C62.219,17.586,62.882,17.25,63.337,16.577z"/>
	<path fill="#FFFFFF" d="M73.091,16.152c0,0.481,0.151,0.834,0.454,1.059c0.302,0.224,0.717,0.336,1.244,0.336
		c0.552,0,1.128-0.12,1.726-0.361l0.439,1.2c-0.312,0.156-0.676,0.283-1.092,0.38s-0.865,0.146-1.346,0.146
		c-0.604,0-1.14-0.114-1.604-0.341s-0.824-0.556-1.078-0.985s-0.38-0.937-0.38-1.521V5.58h-3.15V4.282h4.789V16.152z"/>
	<path fill="#FFFFFF" d="M82.083,14.134c0.026,0.767,0.175,1.406,0.449,1.917c0.273,0.51,0.63,0.887,1.073,1.131
		c0.442,0.244,0.937,0.366,1.482,0.366c0.507,0,0.974-0.075,1.4-0.225c0.426-0.149,0.873-0.383,1.341-0.702l0.771,1.083
		c-0.481,0.377-1.032,0.673-1.653,0.888c-0.621,0.215-1.247,0.322-1.877,0.322c-0.982,0-1.827-0.221-2.536-0.663
		c-0.709-0.442-1.247-1.066-1.614-1.873c-0.368-0.806-0.551-1.743-0.551-2.809c0-1.034,0.186-1.957,0.556-2.77
		s0.894-1.448,1.57-1.907s1.463-0.688,2.36-0.688c0.858,0,1.601,0.201,2.229,0.604s1.108,0.983,1.443,1.741
		c0.335,0.757,0.502,1.653,0.502,2.687c0,0.299-0.013,0.598-0.039,0.897H82.083z M82.937,10.383
		c-0.498,0.556-0.779,1.383-0.844,2.482h5.354c-0.02-1.08-0.257-1.902-0.712-2.468s-1.076-0.849-1.863-0.849
		C84.08,9.549,83.434,9.827,82.937,10.383z"/>
</g>
<g>
	<path fill="#FFFFFF" d="M110.188,8.616h1.697l-3.735,10.271h-1.902l-3.707-10.271h1.736l2.975,8.778L110.188,8.616z"/>
	<path fill="#FFFFFF" d="M122.193,7.026c0.748,1.19,1.122,2.903,1.122,5.14c0,2.243-0.374,3.961-1.122,5.155
		c-0.747,1.193-1.84,1.79-3.276,1.79c-1.438,0-2.53-0.596-3.278-1.79c-0.748-1.193-1.122-2.912-1.122-5.155
		c0-2.237,0.374-3.95,1.122-5.14c0.748-1.19,1.84-1.785,3.278-1.785C120.354,5.242,121.446,5.836,122.193,7.026z M116.254,12.167
		c0,1.496,0.114,2.666,0.341,3.511l4.106-8.251c-0.403-0.579-0.998-0.868-1.784-0.868C117.142,6.558,116.254,8.428,116.254,12.167z
		 M121.589,12.167c0-1.521-0.117-2.698-0.351-3.531l-4.087,8.291c0.215,0.292,0.467,0.509,0.756,0.648
		c0.289,0.14,0.626,0.21,1.01,0.21C120.698,17.785,121.589,15.912,121.589,12.167z"/>
	<path fill="#FFFFFF" d="M129.118,16.526c0.15-0.26,0.354-0.466,0.615-0.619c0.26-0.153,0.549-0.229,0.868-0.229
		c0.324,0,0.619,0.077,0.882,0.229c0.264,0.153,0.47,0.359,0.62,0.619c0.149,0.26,0.224,0.546,0.224,0.858
		c0,0.318-0.074,0.609-0.224,0.873c-0.15,0.263-0.356,0.471-0.62,0.624c-0.263,0.153-0.558,0.229-0.882,0.229
		c-0.319,0-0.608-0.076-0.868-0.229c-0.261-0.153-0.465-0.361-0.615-0.624c-0.149-0.264-0.224-0.555-0.224-0.873
		C128.895,17.073,128.969,16.787,129.118,16.526z"/>
	<path fill="#FFFFFF" d="M145.772,10.318c-0.387,0.478-0.971,0.931-1.751,1.36c0.904,0.371,1.609,0.863,2.117,1.478
		c0.507,0.614,0.761,1.325,0.761,2.131c0,0.729-0.188,1.383-0.565,1.965c-0.378,0.582-0.914,1.037-1.609,1.366
		c-0.696,0.328-1.509,0.492-2.438,0.492c-0.937,0-1.746-0.166-2.429-0.497s-1.205-0.785-1.565-1.361
		c-0.361-0.575-0.542-1.221-0.542-1.936c0-1.508,0.897-2.676,2.692-3.501c-0.735-0.351-1.276-0.767-1.624-1.249
		c-0.348-0.481-0.521-1.089-0.521-1.824c0-0.774,0.203-1.424,0.609-1.951c0.406-0.527,0.92-0.917,1.541-1.17
		c0.621-0.254,1.247-0.38,1.878-0.38c0.688,0,1.339,0.124,1.95,0.371s1.11,0.627,1.497,1.141s0.58,1.147,0.58,1.902
		C146.353,9.286,146.159,9.84,145.772,10.318z M144.744,13.922c-0.287-0.352-0.659-0.634-1.117-0.849
		c-0.458-0.215-1.143-0.478-2.053-0.79c-0.638,0.292-1.146,0.678-1.527,1.156c-0.38,0.478-0.57,1.107-0.57,1.887
		c0,0.774,0.239,1.377,0.717,1.809c0.479,0.433,1.172,0.649,2.083,0.649c0.61,0,1.134-0.107,1.57-0.322
		c0.436-0.215,0.766-0.509,0.989-0.883c0.225-0.374,0.337-0.798,0.337-1.273C145.173,14.735,145.029,14.273,144.744,13.922z
		 M140.252,9.943c0.225,0.292,0.527,0.526,0.907,0.702c0.381,0.175,0.947,0.384,1.702,0.624c0.442-0.247,0.796-0.487,1.063-0.722
		c0.267-0.234,0.468-0.498,0.604-0.79s0.205-0.64,0.205-1.043c0-0.683-0.212-1.221-0.635-1.614s-1.014-0.59-1.774-0.59
		s-1.353,0.199-1.775,0.595s-0.634,0.949-0.634,1.658C139.916,9.257,140.027,9.65,140.252,9.943z"/>
	<path fill="#FFFFFF" d="M157.306,7.026c0.748,1.19,1.122,2.903,1.122,5.14c0,2.243-0.374,3.961-1.122,5.155
		c-0.747,1.193-1.84,1.79-3.276,1.79c-1.438,0-2.53-0.596-3.277-1.79c-0.748-1.193-1.122-2.912-1.122-5.155
		c0-2.237,0.374-3.95,1.122-5.14c0.747-1.19,1.84-1.785,3.277-1.785C155.466,5.242,156.559,5.836,157.306,7.026z M151.366,12.167
		c0,1.496,0.113,2.666,0.342,3.511l4.105-8.251c-0.403-0.579-0.998-0.868-1.784-0.868C152.254,6.558,151.366,8.428,151.366,12.167z
		 M156.701,12.167c0-1.521-0.117-2.698-0.351-3.531l-4.087,8.291c0.215,0.292,0.467,0.509,0.756,0.648
		c0.289,0.14,0.626,0.21,1.01,0.21C155.811,17.785,156.701,15.912,156.701,12.167z"/>
</g>
</svg>
