<?xml version="1.0" encoding="utf-8"?>
<!-- Generator: Adobe Illustrator 16.0.0, SVG Export Plug-In . SVG Version: 6.00 Build 0)  -->
<!DOCTYPE svg PUBLIC "-//W3C//DTD SVG 1.1//EN" "http://www.w3.org/Graphics/SVG/1.1/DTD/svg11.dtd">
<svg version="1.1" id="Layer_1" xmlns="http://www.w3.org/2000/svg" xmlns:xlink="http://www.w3.org/1999/xlink" x="0px" y="0px"
	 width="210px" height="31px" viewBox="0 0 210 31" enable-background="new 0 0 210 31" xml:space="preserve">
<g id="flag">
	<g id="gray">
		<g>
			<path fill="#666666" d="M122.501,22.496c0,4.677-3.827,8.504-8.504,8.504H8.505c-4.677,0-8.504-3.827-8.504-8.504V8.504
				C0.001,3.827,3.828,0,8.505,0h105.492c4.677,0,8.504,3.827,8.504,8.504V22.496z"/>
		</g>
		<rect x="114.25" fill="#666666" width="8.251" height="31"/>
	</g>
	<g id="green">
		<g>
			<path fill="#00E000" d="M210,8.504C210,3.827,206.173,0,201.496,0h-70.492c-4.677,0-8.504,3.827-8.504,8.504v13.992
				c0,4.677,3.827,8.504,8.504,8.504h70.492c4.677,0,8.504-3.827,8.504-8.504V8.504z"/>
		</g>
		<rect x="122.5" fill="#00E000" width="12.75" height="31"/>
	</g>
</g>
<g>
	<path fill="#FFFFFF" d="M23.335,8.383h-7.237v5.711h6.277v1.76h-6.277v6.018h7.705v1.711h-9.846V6.635h9.625L23.335,8.383z"/>
	<path fill="#FFFFFF" d="M34.873,21.602c0.579-0.369,0.868-0.87,0.868-1.501c0-0.427-0.076-0.777-0.228-1.052
		s-0.451-0.527-0.898-0.757c-0.447-0.229-1.118-0.455-2.012-0.677c-0.993-0.246-1.803-0.515-2.431-0.806
		c-0.627-0.291-1.116-0.671-1.464-1.139c-0.349-0.467-0.523-1.063-0.523-1.784c0-0.714,0.205-1.337,0.615-1.871
		c0.41-0.533,0.986-0.943,1.729-1.23s1.602-0.431,2.579-0.431s1.856,0.129,2.64,0.388c0.783,0.259,1.471,0.605,2.062,1.04
		l-0.911,1.403c-0.542-0.369-1.11-0.654-1.705-0.855c-0.595-0.201-1.282-0.302-2.062-0.302c-0.977,0-1.688,0.15-2.136,0.449
		c-0.447,0.3-0.67,0.716-0.67,1.25c0,0.386,0.104,0.702,0.313,0.948c0.209,0.246,0.55,0.466,1.021,0.658
		c0.472,0.193,1.176,0.417,2.111,0.671c0.936,0.254,1.703,0.538,2.302,0.849c0.599,0.312,1.066,0.72,1.403,1.225
		c0.336,0.505,0.505,1.147,0.505,1.926c0,0.878-0.254,1.606-0.763,2.185s-1.175,1.003-2,1.274c-0.825,0.271-1.725,0.406-2.702,0.406
		c-2.035,0-3.725-0.583-5.071-1.748l1.182-1.366c0.525,0.443,1.12,0.788,1.785,1.034s1.366,0.369,2.104,0.369
		C33.509,22.155,34.295,21.971,34.873,21.602z"/>
	<path fill="#FFFFFF" d="M53.168,22.931c-0.435,0.287-0.971,0.515-1.606,0.683s-1.257,0.252-1.864,0.252
		c-0.911,0-1.692-0.167-2.345-0.499c-0.652-0.333-1.151-0.794-1.496-1.385c-0.344-0.591-0.517-1.268-0.517-2.031v-7.729h-2.979v-1.6
		h2.979V7.682l2.067-0.246v3.188h4.48l-0.246,1.6h-4.234v7.705c0,0.738,0.195,1.292,0.585,1.662c0.39,0.369,1.019,0.554,1.889,0.554
		c0.878,0,1.707-0.205,2.486-0.615L53.168,22.931z"/>
	<path fill="#FFFFFF" d="M66.928,20.752c0,0.509,0.082,0.884,0.246,1.126s0.435,0.42,0.813,0.535l-0.505,1.453
		c-1.247-0.165-2.039-0.771-2.375-1.822c-0.459,0.599-1.04,1.052-1.741,1.36c-0.702,0.308-1.475,0.461-2.32,0.461
		c-0.854,0-1.596-0.165-2.228-0.493c-0.632-0.328-1.116-0.793-1.452-1.396c-0.337-0.604-0.505-1.307-0.505-2.111
		c0-1.337,0.521-2.363,1.563-3.077s2.548-1.071,4.517-1.071h1.908v-1.083c0-0.902-0.263-1.557-0.788-1.963
		c-0.525-0.406-1.292-0.609-2.302-0.609c-0.977,0-2.101,0.222-3.372,0.665l-0.542-1.563c1.444-0.542,2.855-0.813,4.234-0.813
		c1.583,0,2.788,0.372,3.612,1.114c0.824,0.743,1.237,1.766,1.237,3.07V20.752z M63.402,21.805c0.579-0.324,1.061-0.773,1.446-1.348
		v-3.335h-1.871c-1.371,0-2.363,0.234-2.979,0.702c-0.615,0.467-0.923,1.14-0.923,2.018c0,1.633,0.833,2.449,2.499,2.449
		C62.214,22.291,62.824,22.129,63.402,21.805z"/>
	<path fill="#FFFFFF" d="M74.485,12.309c0.484-0.632,1.038-1.116,1.662-1.452s1.3-0.505,2.031-0.505
		c1.674,0,2.902,0.593,3.686,1.779s1.175,2.841,1.175,4.966c0,1.321-0.197,2.493-0.591,3.514c-0.394,1.021-0.976,1.819-1.748,2.394
		c-0.771,0.575-1.703,0.862-2.794,0.862c-0.755,0-1.423-0.134-2.006-0.4c-0.583-0.267-1.091-0.675-1.526-1.225l-0.147,1.341h-1.81
		V5.405l2.068-0.259V12.309z M79.925,20.918c0.574-0.849,0.862-2.127,0.862-3.834c0-1.682-0.259-2.948-0.775-3.797
		c-0.517-0.849-1.276-1.274-2.277-1.274c-0.665,0-1.271,0.197-1.821,0.591c-0.55,0.394-1.026,0.891-1.428,1.489v6.425
		c0.345,0.525,0.773,0.935,1.286,1.23s1.061,0.443,1.643,0.443C78.514,22.192,79.351,21.768,79.925,20.918z"/>
	<path fill="#FFFFFF" d="M92.232,20.383c0,0.607,0.191,1.053,0.572,1.335c0.381,0.283,0.905,0.425,1.569,0.425
		c0.697,0,1.423-0.152,2.178-0.456l0.554,1.514c-0.394,0.197-0.854,0.357-1.378,0.48c-0.525,0.123-1.092,0.185-1.699,0.185
		c-0.763,0-1.438-0.144-2.024-0.431c-0.587-0.287-1.04-0.702-1.36-1.243c-0.32-0.542-0.48-1.182-0.48-1.92V7.042h-3.975V5.405h6.043
		V20.383z"/>
	<path fill="#FFFFFF" d="M103.58,17.835c0.033,0.968,0.221,1.774,0.566,2.418s0.796,1.12,1.354,1.428
		c0.558,0.308,1.182,0.461,1.871,0.461c0.64,0,1.229-0.094,1.766-0.283c0.538-0.188,1.102-0.484,1.692-0.886l0.972,1.366
		c-0.607,0.476-1.303,0.849-2.086,1.12c-0.784,0.271-1.574,0.406-2.369,0.406c-1.239,0-2.306-0.279-3.2-0.837
		c-0.895-0.558-1.573-1.346-2.037-2.363c-0.464-1.017-0.696-2.199-0.696-3.544c0-1.305,0.234-2.47,0.702-3.496
		c0.468-1.025,1.128-1.828,1.981-2.406c0.854-0.578,1.846-0.868,2.979-0.868c1.083,0,2.021,0.254,2.813,0.763
		c0.792,0.509,1.399,1.241,1.821,2.197c0.423,0.956,0.634,2.086,0.634,3.391c0,0.377-0.016,0.755-0.049,1.132H103.58z
		 M104.656,13.103c-0.627,0.702-0.982,1.746-1.064,3.132h6.757c-0.024-1.362-0.324-2.4-0.898-3.114s-1.358-1.071-2.351-1.071
		C106.098,12.051,105.284,12.401,104.656,13.103z"/>
</g>
<g>
	<path fill="#FFFFFF" d="M139.041,10.873h2.142l-4.714,12.96h-2.4l-4.676-12.96h2.19l3.754,11.077L139.041,10.873z"/>
	<path fill="#FFFFFF" d="M154.191,8.867c0.943,1.501,1.416,3.664,1.416,6.486c0,2.831-0.473,4.999-1.416,6.504
		c-0.943,1.506-2.322,2.259-4.135,2.259c-1.813,0-3.191-0.753-4.136-2.259c-0.943-1.505-1.415-3.674-1.415-6.504
		c0-2.823,0.472-4.985,1.415-6.486c0.944-1.501,2.322-2.252,4.136-2.252C151.869,6.615,153.248,7.365,154.191,8.867z
		 M146.696,15.353c0,1.887,0.144,3.364,0.431,4.431l5.182-10.412c-0.509-0.73-1.26-1.096-2.252-1.096
		C147.816,8.276,146.696,10.635,146.696,15.353z M153.429,15.353c0-1.92-0.147-3.405-0.442-4.456l-5.158,10.462
		c0.271,0.369,0.59,0.642,0.955,0.818c0.364,0.176,0.789,0.265,1.273,0.265C152.305,22.442,153.429,20.079,153.429,15.353z"/>
	<path fill="#FFFFFF" d="M162.93,20.854c0.188-0.328,0.447-0.588,0.775-0.781s0.693-0.29,1.096-0.29c0.41,0,0.781,0.097,1.113,0.29
		s0.593,0.453,0.781,0.781c0.189,0.328,0.283,0.689,0.283,1.083c0,0.402-0.094,0.77-0.283,1.102
		c-0.188,0.333-0.449,0.595-0.781,0.788c-0.332,0.193-0.703,0.29-1.113,0.29c-0.402,0-0.768-0.097-1.096-0.29
		c-0.328-0.192-0.587-0.455-0.775-0.788c-0.189-0.332-0.283-0.699-0.283-1.102C162.646,21.544,162.74,21.183,162.93,20.854z"/>
	<path fill="#FFFFFF" d="M183.945,13.021c-0.488,0.603-1.225,1.176-2.209,1.717c1.14,0.467,2.03,1.089,2.67,1.864
		c0.641,0.775,0.96,1.672,0.96,2.689c0,0.919-0.237,1.746-0.714,2.48c-0.476,0.734-1.152,1.309-2.031,1.723
		c-0.877,0.414-1.902,0.622-3.076,0.622c-1.182,0-2.203-0.209-3.064-0.628s-1.52-0.991-1.976-1.717s-0.683-1.541-0.683-2.443
		c0-1.904,1.132-3.376,3.396-4.418c-0.928-0.443-1.61-0.968-2.049-1.576c-0.439-0.607-0.658-1.374-0.658-2.301
		c0-0.977,0.256-1.797,0.769-2.462c0.513-0.665,1.161-1.157,1.944-1.477c0.783-0.32,1.574-0.48,2.369-0.48
		c0.87,0,1.69,0.156,2.462,0.467c0.771,0.312,1.401,0.792,1.89,1.44c0.488,0.648,0.732,1.448,0.732,2.4
		C184.678,11.718,184.434,12.417,183.945,13.021z M182.646,17.568c-0.361-0.443-0.831-0.8-1.409-1.071
		c-0.579-0.271-1.442-0.603-2.591-0.997c-0.805,0.37-1.446,0.855-1.926,1.458c-0.48,0.603-0.721,1.397-0.721,2.382
		c0,0.977,0.302,1.737,0.904,2.283c0.604,0.546,1.479,0.819,2.629,0.819c0.771,0,1.432-0.136,1.98-0.406
		c0.55-0.271,0.967-0.642,1.25-1.114s0.424-1.007,0.424-1.606C183.188,18.594,183.008,18.011,182.646,17.568z M176.979,12.547
		c0.283,0.369,0.665,0.665,1.145,0.886c0.48,0.222,1.195,0.484,2.148,0.788c0.558-0.312,1.004-0.615,1.342-0.911
		c0.336-0.295,0.59-0.628,0.762-0.997c0.173-0.369,0.26-0.808,0.26-1.317c0-0.861-0.268-1.541-0.801-2.037
		c-0.533-0.496-1.279-0.745-2.24-0.745c-0.959,0-1.707,0.25-2.24,0.751s-0.799,1.198-0.799,2.092
		C176.555,11.681,176.695,12.178,176.979,12.547z"/>
	<path fill="#FFFFFF" d="M198.498,8.867c0.943,1.501,1.416,3.664,1.416,6.486c0,2.831-0.473,4.999-1.416,6.504
		c-0.943,1.506-2.322,2.259-4.135,2.259c-1.813,0-3.191-0.753-4.136-2.259c-0.943-1.505-1.415-3.674-1.415-6.504
		c0-2.823,0.472-4.985,1.415-6.486c0.944-1.501,2.322-2.252,4.136-2.252C196.176,6.615,197.555,7.365,198.498,8.867z
		 M191.003,15.353c0,1.887,0.144,3.364,0.431,4.431l5.182-10.412c-0.509-0.73-1.26-1.096-2.252-1.096
		C192.123,8.276,191.003,10.635,191.003,15.353z M197.735,15.353c0-1.92-0.147-3.405-0.442-4.456l-5.158,10.462
		c0.271,0.369,0.59,0.642,0.955,0.818c0.364,0.176,0.789,0.265,1.273,0.265C196.611,22.442,197.735,20.079,197.735,15.353z"/>
</g>
</svg>
